M48
; DRILL file {KiCad 9.0.3} date 2026-02-18T15:21:41+0000
; FORMAT={-:-/ absolute / metric / decimal}
; #@! TF.CreationDate,2026-02-18T15:21:41+00:00
; #@! TF.GenerationSoftware,Kicad,Pcbnew,9.0.3
; #@! TF.FileFunction,Plated,1,4,PTH
FMAT,2
METRIC
; #@! TA.AperFunction,Plated,PTH,ComponentDrill
T1C0.300
; #@! TA.AperFunction,Plated,PTH,ViaDrill
T2C0.400
; #@! TA.AperFunction,Plated,PTH,ComponentDrill
T3C0.800
; #@! TA.AperFunction,Plated,PTH,ComponentDrill
T4C0.900
; #@! TA.AperFunction,Plated,PTH,ComponentDrill
T5C1.000
; #@! TA.AperFunction,Plated,PTH,ComponentDrill
T6C1.200
; #@! TA.AperFunction,Plated,PTH,ComponentDrill
T7C1.500
; #@! TA.AperFunction,Plated,PTH,ComponentDrill
T8C3.200
%
G90
G05
T1
X97.354Y-68.814
X97.354Y-70.114
X98.654Y-68.814
X98.654Y-70.114
X99.954Y-68.814
X99.954Y-70.114
X101.254Y-68.814
X101.254Y-70.114
T2
X65.484Y-41.084
X66.424Y-41.094
X69.047Y-41.067
X70.354Y-41.104
X71.074Y-92.176
X71.104Y-38.814
X71.104Y-44.904
X71.604Y-63.114
X72.854Y-61.114
X73.66Y-44.72
X75.104Y-61.114
X76.521Y-40.715
X79.104Y-63.614
X79.341Y-40.715
X80.825Y-88.006
X81.811Y-92.629
X82.076Y-87.17
X82.104Y-60.114
X82.161Y-40.715
X82.313Y-66.877
X82.604Y-64.114
X83.824Y-87.628
X83.854Y-60.114
X83.909Y-90.217
X84.981Y-40.715
X86.194Y-74.257
X86.441Y-42.434
X87.354Y-60.114
X87.464Y-74.257
X87.801Y-40.715
X88.734Y-74.257
X89.234Y-42.18
X89.604Y-64.114
X90.004Y-74.257
X90.595Y-40.715
X90.854Y-60.114
X92.028Y-42.18
X92.592Y-63.749
X93.389Y-40.715
X93.64Y-61.628
X94.204Y-67.714
X94.604Y-65.114
X95.428Y-70.114
X97.517Y-63.246
X97.517Y-64.262
X98.669Y-72.114
X103.976Y-74.387
X105.519Y-71.625
X106.045Y-68.326
X106.045Y-69.85
X107.823Y-50.038
X108.514Y-86.692
X108.604Y-112.614
X109.331Y-44.212
X109.347Y-68.326
X109.347Y-69.85
X110.192Y-41.649
X110.254Y-110.595
X111.379Y-68.326
X112.404Y-106.114
X112.649Y-97.389
X112.854Y-74.364
X112.854Y-85.864
X113.193Y-110.825
X113.204Y-112.364
X113.408Y-99.304
X113.411Y-66.802
X113.411Y-69.85
X113.432Y-76.293
X113.456Y-87.775
X114.854Y-78.864
X114.854Y-90.364
X114.854Y-101.864
X115.443Y-68.326
X116.354Y-81.864
X116.354Y-93.364
X117.354Y-110.839
X117.427Y-43.45
X117.604Y-79.864
X117.604Y-91.364
X117.604Y-102.864
X118.115Y-77.22
X118.115Y-88.72
X118.115Y-100.22
X118.278Y-41.432
X119.204Y-112.364
X120.121Y-98.364
X120.304Y-72.492
X120.454Y-95.29
X120.554Y-80.364
X120.554Y-91.864
X120.554Y-103.364
X120.604Y-97.114
X121.354Y-84.784
X121.354Y-110.864
X122.604Y-74.114
X122.604Y-75.614
X122.854Y-77.114
X122.854Y-88.614
X122.854Y-100.114
X122.991Y-86.069
X123.204Y-112.364
X123.354Y-81.614
X123.354Y-82.814
X123.354Y-93.114
X123.354Y-104.614
X123.847Y-85.355
X124.325Y-95.352
X124.604Y-72.114
X125.216Y-81.618
X125.216Y-93.118
X125.216Y-104.618
X125.304Y-78.314
X125.304Y-89.814
X125.304Y-101.314
X125.354Y-110.614
X126.854Y-79.114
X126.854Y-90.614
X126.854Y-102.114
X126.95Y-81.136
X126.95Y-92.636
X126.95Y-104.136
X127.854Y-75.864
X127.854Y-87.364
X127.854Y-98.864
X127.914Y-74.554
X127.914Y-86.054
X127.914Y-97.554
X131.104Y-85.114
X131.354Y-75.864
X133.804Y-73.614
T3
X137.104Y-49.614
X137.104Y-51.614
X137.104Y-53.614
X137.104Y-55.614
X137.104Y-57.614
T4
X114.633Y-51.054
X114.633Y-53.594
X114.633Y-56.134
X122.634Y-51.054
X122.634Y-53.594
X122.634Y-56.134
X130.635Y-51.054
X130.635Y-53.594
X130.635Y-56.134
T5
X59.055Y-50.8
X59.055Y-53.34
X59.055Y-111.76
X59.055Y-114.3
X60.071Y-58.42
X61.595Y-50.8
X61.595Y-53.34
X61.595Y-111.76
X61.595Y-114.3
X62.611Y-58.42
X64.135Y-50.8
X64.135Y-53.34
X64.135Y-111.76
X64.135Y-114.3
X65.151Y-58.42
X66.675Y-50.8
X66.675Y-53.34
X66.675Y-111.76
X66.675Y-114.3
X67.691Y-58.42
X69.215Y-50.8
X69.215Y-53.34
X69.215Y-106.68
X69.215Y-111.76
X69.215Y-114.3
X70.231Y-58.42
X71.755Y-50.8
X71.755Y-53.34
X71.755Y-106.68
X71.755Y-111.76
X71.755Y-114.3
X72.771Y-58.42
X74.295Y-50.8
X74.295Y-53.34
X74.295Y-106.68
X74.295Y-111.76
X74.295Y-114.3
X75.311Y-58.42
X76.835Y-50.8
X76.835Y-53.34
X76.835Y-106.68
X76.835Y-111.76
X76.835Y-114.3
X77.851Y-58.42
X79.375Y-50.8
X79.375Y-53.34
X79.375Y-106.68
X79.375Y-111.76
X79.375Y-114.3
X80.391Y-58.42
X80.899Y-99.06
X81.354Y-73.339
X81.354Y-75.879
X81.354Y-78.419
X81.915Y-50.8
X81.915Y-53.34
X81.915Y-106.68
X81.915Y-111.76
X81.915Y-114.3
X82.931Y-58.42
X83.439Y-99.06
X84.455Y-50.8
X84.455Y-53.34
X84.455Y-106.68
X84.455Y-111.76
X84.455Y-114.3
X86.995Y-50.8
X86.995Y-53.34
X86.995Y-58.42
X86.995Y-106.68
X86.995Y-111.76
X86.995Y-114.3
X89.535Y-50.8
X89.535Y-53.34
X89.535Y-58.42
X89.535Y-111.76
X89.535Y-114.3
X92.075Y-50.8
X92.075Y-53.34
X92.075Y-58.42
X92.075Y-106.68
X92.075Y-111.76
X92.075Y-114.3
X94.615Y-50.8
X94.615Y-53.34
X94.615Y-58.42
X94.615Y-106.68
X94.615Y-111.76
X94.615Y-114.3
X97.155Y-50.8
X97.155Y-53.34
X97.155Y-58.42
X97.155Y-106.68
X97.155Y-111.76
X97.155Y-114.3
X99.695Y-50.8
X99.695Y-53.34
X99.695Y-58.42
X99.695Y-106.68
X99.695Y-111.76
X99.695Y-114.3
X102.235Y-50.8
X102.235Y-53.34
X102.235Y-58.42
X102.235Y-106.68
X102.235Y-111.76
X102.235Y-114.3
X104.604Y-93.114
X104.604Y-95.614
X104.604Y-98.114
X104.775Y-50.8
X104.775Y-53.34
X104.775Y-58.42
X104.775Y-78.74
X104.775Y-81.28
X104.775Y-83.82
X104.775Y-106.68
X104.775Y-111.76
X104.775Y-114.3
X107.315Y-78.74
X107.315Y-81.28
X107.315Y-83.82
X133.073Y-62.176
X133.073Y-64.716
X133.073Y-67.256
X133.073Y-69.796
X133.073Y-76.146
X133.073Y-78.686
X133.073Y-81.226
X133.073Y-83.766
X133.073Y-86.306
X133.073Y-88.846
X133.073Y-91.386
X133.073Y-95.196
X133.073Y-97.736
X133.073Y-100.276
X133.073Y-102.816
X133.073Y-105.356
X133.073Y-107.896
X133.073Y-110.436
X135.613Y-62.176
X135.613Y-64.716
X135.613Y-67.256
X135.613Y-69.796
X135.613Y-76.146
X135.613Y-78.686
X135.613Y-81.226
X135.613Y-83.766
X135.613Y-86.306
X135.613Y-88.846
X135.613Y-91.386
X135.613Y-95.196
X135.613Y-97.736
X135.613Y-100.276
X135.613Y-102.816
X135.613Y-105.356
X135.613Y-107.896
X135.613Y-110.436
T6
X71.604Y-70.114
X71.604Y-73.614
X113.659Y-120.181
X117.159Y-120.181
X120.659Y-120.181
X124.159Y-120.181
X127.659Y-120.181
T7
X106.121Y-42.18
X134.104Y-116.114
T8
X60.833Y-41.18
X60.833Y-123.92
X134.897Y-41.18
X134.897Y-123.92
M30
