G04 #@! TF.GenerationSoftware,KiCad,Pcbnew,9.0.3*
G04 #@! TF.CreationDate,2026-02-18T15:21:07+00:00*
G04 #@! TF.ProjectId,nevb_mtr1_c_1,6e657662-5f6d-4747-9231-5f635f312e6b,01*
G04 #@! TF.SameCoordinates,Original*
G04 #@! TF.FileFunction,Soldermask,Bot*
G04 #@! TF.FilePolarity,Negative*
%FSLAX46Y46*%
G04 Gerber Fmt 4.6, Leading zero omitted, Abs format (unit mm)*
G04 Created by KiCad (PCBNEW 9.0.3) date 2026-02-18 15:21:07*
%MOMM*%
%LPD*%
G01*
G04 APERTURE LIST*
G04 Aperture macros list*
%AMRoundRect*
0 Rectangle with rounded corners*
0 $1 Rounding radius*
0 $2 $3 $4 $5 $6 $7 $8 $9 X,Y pos of 4 corners*
0 Add a 4 corners polygon primitive as box body*
4,1,4,$2,$3,$4,$5,$6,$7,$8,$9,$2,$3,0*
0 Add four circle primitives for the rounded corners*
1,1,$1+$1,$2,$3*
1,1,$1+$1,$4,$5*
1,1,$1+$1,$6,$7*
1,1,$1+$1,$8,$9*
0 Add four rect primitives between the rounded corners*
20,1,$1+$1,$2,$3,$4,$5,0*
20,1,$1+$1,$4,$5,$6,$7,0*
20,1,$1+$1,$6,$7,$8,$9,0*
20,1,$1+$1,$8,$9,$2,$3,0*%
G04 Aperture macros list end*
%ADD10C,0.300000*%
%ADD11C,1.676400*%
%ADD12C,5.700000*%
%ADD13R,1.700000X1.700000*%
%ADD14O,1.700000X1.700000*%
%ADD15RoundRect,0.250000X-1.550000X0.650000X-1.550000X-0.650000X1.550000X-0.650000X1.550000X0.650000X0*%
%ADD16O,3.600000X1.800000*%
%ADD17C,3.000000*%
%ADD18RoundRect,0.250000X-0.650000X-1.550000X0.650000X-1.550000X0.650000X1.550000X-0.650000X1.550000X0*%
%ADD19O,1.800000X3.600000*%
%ADD20C,4.000000*%
%ADD21C,1.800000*%
%ADD22R,1.350000X1.350000*%
%ADD23O,1.350000X1.350000*%
G04 APERTURE END LIST*
D10*
X60935082Y-157209400D02*
X61149368Y-157280828D01*
X61149368Y-157280828D02*
X61506510Y-157280828D01*
X61506510Y-157280828D02*
X61649368Y-157209400D01*
X61649368Y-157209400D02*
X61720796Y-157137971D01*
X61720796Y-157137971D02*
X61792225Y-156995114D01*
X61792225Y-156995114D02*
X61792225Y-156852257D01*
X61792225Y-156852257D02*
X61720796Y-156709400D01*
X61720796Y-156709400D02*
X61649368Y-156637971D01*
X61649368Y-156637971D02*
X61506510Y-156566542D01*
X61506510Y-156566542D02*
X61220796Y-156495114D01*
X61220796Y-156495114D02*
X61077939Y-156423685D01*
X61077939Y-156423685D02*
X61006510Y-156352257D01*
X61006510Y-156352257D02*
X60935082Y-156209400D01*
X60935082Y-156209400D02*
X60935082Y-156066542D01*
X60935082Y-156066542D02*
X61006510Y-155923685D01*
X61006510Y-155923685D02*
X61077939Y-155852257D01*
X61077939Y-155852257D02*
X61220796Y-155780828D01*
X61220796Y-155780828D02*
X61577939Y-155780828D01*
X61577939Y-155780828D02*
X61792225Y-155852257D01*
X62649367Y-157280828D02*
X62506510Y-157209400D01*
X62506510Y-157209400D02*
X62435081Y-157137971D01*
X62435081Y-157137971D02*
X62363653Y-156995114D01*
X62363653Y-156995114D02*
X62363653Y-156566542D01*
X62363653Y-156566542D02*
X62435081Y-156423685D01*
X62435081Y-156423685D02*
X62506510Y-156352257D01*
X62506510Y-156352257D02*
X62649367Y-156280828D01*
X62649367Y-156280828D02*
X62863653Y-156280828D01*
X62863653Y-156280828D02*
X63006510Y-156352257D01*
X63006510Y-156352257D02*
X63077939Y-156423685D01*
X63077939Y-156423685D02*
X63149367Y-156566542D01*
X63149367Y-156566542D02*
X63149367Y-156995114D01*
X63149367Y-156995114D02*
X63077939Y-157137971D01*
X63077939Y-157137971D02*
X63006510Y-157209400D01*
X63006510Y-157209400D02*
X62863653Y-157280828D01*
X62863653Y-157280828D02*
X62649367Y-157280828D01*
X64006510Y-157280828D02*
X63863653Y-157209400D01*
X63863653Y-157209400D02*
X63792224Y-157066542D01*
X63792224Y-157066542D02*
X63792224Y-155780828D01*
X65220796Y-157280828D02*
X65220796Y-155780828D01*
X65220796Y-157209400D02*
X65077938Y-157280828D01*
X65077938Y-157280828D02*
X64792224Y-157280828D01*
X64792224Y-157280828D02*
X64649367Y-157209400D01*
X64649367Y-157209400D02*
X64577938Y-157137971D01*
X64577938Y-157137971D02*
X64506510Y-156995114D01*
X64506510Y-156995114D02*
X64506510Y-156566542D01*
X64506510Y-156566542D02*
X64577938Y-156423685D01*
X64577938Y-156423685D02*
X64649367Y-156352257D01*
X64649367Y-156352257D02*
X64792224Y-156280828D01*
X64792224Y-156280828D02*
X65077938Y-156280828D01*
X65077938Y-156280828D02*
X65220796Y-156352257D01*
X66506510Y-157209400D02*
X66363653Y-157280828D01*
X66363653Y-157280828D02*
X66077939Y-157280828D01*
X66077939Y-157280828D02*
X65935081Y-157209400D01*
X65935081Y-157209400D02*
X65863653Y-157066542D01*
X65863653Y-157066542D02*
X65863653Y-156495114D01*
X65863653Y-156495114D02*
X65935081Y-156352257D01*
X65935081Y-156352257D02*
X66077939Y-156280828D01*
X66077939Y-156280828D02*
X66363653Y-156280828D01*
X66363653Y-156280828D02*
X66506510Y-156352257D01*
X66506510Y-156352257D02*
X66577939Y-156495114D01*
X66577939Y-156495114D02*
X66577939Y-156637971D01*
X66577939Y-156637971D02*
X65863653Y-156780828D01*
X67220795Y-157280828D02*
X67220795Y-156280828D01*
X67220795Y-156566542D02*
X67292224Y-156423685D01*
X67292224Y-156423685D02*
X67363653Y-156352257D01*
X67363653Y-156352257D02*
X67506510Y-156280828D01*
X67506510Y-156280828D02*
X67649367Y-156280828D01*
X69292223Y-157280828D02*
X69292223Y-155780828D01*
X69292223Y-155780828D02*
X69792223Y-156852257D01*
X69792223Y-156852257D02*
X70292223Y-155780828D01*
X70292223Y-155780828D02*
X70292223Y-157280828D01*
X71649367Y-157280828D02*
X71649367Y-156495114D01*
X71649367Y-156495114D02*
X71577938Y-156352257D01*
X71577938Y-156352257D02*
X71435081Y-156280828D01*
X71435081Y-156280828D02*
X71149367Y-156280828D01*
X71149367Y-156280828D02*
X71006509Y-156352257D01*
X71649367Y-157209400D02*
X71506509Y-157280828D01*
X71506509Y-157280828D02*
X71149367Y-157280828D01*
X71149367Y-157280828D02*
X71006509Y-157209400D01*
X71006509Y-157209400D02*
X70935081Y-157066542D01*
X70935081Y-157066542D02*
X70935081Y-156923685D01*
X70935081Y-156923685D02*
X71006509Y-156780828D01*
X71006509Y-156780828D02*
X71149367Y-156709400D01*
X71149367Y-156709400D02*
X71506509Y-156709400D01*
X71506509Y-156709400D02*
X71649367Y-156637971D01*
X72292224Y-157209400D02*
X72435081Y-157280828D01*
X72435081Y-157280828D02*
X72720795Y-157280828D01*
X72720795Y-157280828D02*
X72863652Y-157209400D01*
X72863652Y-157209400D02*
X72935081Y-157066542D01*
X72935081Y-157066542D02*
X72935081Y-156995114D01*
X72935081Y-156995114D02*
X72863652Y-156852257D01*
X72863652Y-156852257D02*
X72720795Y-156780828D01*
X72720795Y-156780828D02*
X72506510Y-156780828D01*
X72506510Y-156780828D02*
X72363652Y-156709400D01*
X72363652Y-156709400D02*
X72292224Y-156566542D01*
X72292224Y-156566542D02*
X72292224Y-156495114D01*
X72292224Y-156495114D02*
X72363652Y-156352257D01*
X72363652Y-156352257D02*
X72506510Y-156280828D01*
X72506510Y-156280828D02*
X72720795Y-156280828D01*
X72720795Y-156280828D02*
X72863652Y-156352257D01*
X73577938Y-157280828D02*
X73577938Y-155780828D01*
X73720796Y-156709400D02*
X74149367Y-157280828D01*
X74149367Y-156280828D02*
X73577938Y-156852257D01*
X76435081Y-156495114D02*
X76649367Y-156566542D01*
X76649367Y-156566542D02*
X76720796Y-156637971D01*
X76720796Y-156637971D02*
X76792224Y-156780828D01*
X76792224Y-156780828D02*
X76792224Y-156995114D01*
X76792224Y-156995114D02*
X76720796Y-157137971D01*
X76720796Y-157137971D02*
X76649367Y-157209400D01*
X76649367Y-157209400D02*
X76506510Y-157280828D01*
X76506510Y-157280828D02*
X75935081Y-157280828D01*
X75935081Y-157280828D02*
X75935081Y-155780828D01*
X75935081Y-155780828D02*
X76435081Y-155780828D01*
X76435081Y-155780828D02*
X76577939Y-155852257D01*
X76577939Y-155852257D02*
X76649367Y-155923685D01*
X76649367Y-155923685D02*
X76720796Y-156066542D01*
X76720796Y-156066542D02*
X76720796Y-156209400D01*
X76720796Y-156209400D02*
X76649367Y-156352257D01*
X76649367Y-156352257D02*
X76577939Y-156423685D01*
X76577939Y-156423685D02*
X76435081Y-156495114D01*
X76435081Y-156495114D02*
X75935081Y-156495114D01*
X78077939Y-157280828D02*
X78077939Y-156495114D01*
X78077939Y-156495114D02*
X78006510Y-156352257D01*
X78006510Y-156352257D02*
X77863653Y-156280828D01*
X77863653Y-156280828D02*
X77577939Y-156280828D01*
X77577939Y-156280828D02*
X77435081Y-156352257D01*
X78077939Y-157209400D02*
X77935081Y-157280828D01*
X77935081Y-157280828D02*
X77577939Y-157280828D01*
X77577939Y-157280828D02*
X77435081Y-157209400D01*
X77435081Y-157209400D02*
X77363653Y-157066542D01*
X77363653Y-157066542D02*
X77363653Y-156923685D01*
X77363653Y-156923685D02*
X77435081Y-156780828D01*
X77435081Y-156780828D02*
X77577939Y-156709400D01*
X77577939Y-156709400D02*
X77935081Y-156709400D01*
X77935081Y-156709400D02*
X78077939Y-156637971D01*
X79435082Y-157209400D02*
X79292224Y-157280828D01*
X79292224Y-157280828D02*
X79006510Y-157280828D01*
X79006510Y-157280828D02*
X78863653Y-157209400D01*
X78863653Y-157209400D02*
X78792224Y-157137971D01*
X78792224Y-157137971D02*
X78720796Y-156995114D01*
X78720796Y-156995114D02*
X78720796Y-156566542D01*
X78720796Y-156566542D02*
X78792224Y-156423685D01*
X78792224Y-156423685D02*
X78863653Y-156352257D01*
X78863653Y-156352257D02*
X79006510Y-156280828D01*
X79006510Y-156280828D02*
X79292224Y-156280828D01*
X79292224Y-156280828D02*
X79435082Y-156352257D01*
X80077938Y-157280828D02*
X80077938Y-155780828D01*
X80220796Y-156709400D02*
X80649367Y-157280828D01*
X80649367Y-156280828D02*
X80077938Y-156852257D01*
X82863653Y-157852257D02*
X82792224Y-157780828D01*
X82792224Y-157780828D02*
X82649367Y-157566542D01*
X82649367Y-157566542D02*
X82577939Y-157423685D01*
X82577939Y-157423685D02*
X82506510Y-157209400D01*
X82506510Y-157209400D02*
X82435081Y-156852257D01*
X82435081Y-156852257D02*
X82435081Y-156566542D01*
X82435081Y-156566542D02*
X82506510Y-156209400D01*
X82506510Y-156209400D02*
X82577939Y-155995114D01*
X82577939Y-155995114D02*
X82649367Y-155852257D01*
X82649367Y-155852257D02*
X82792224Y-155637971D01*
X82792224Y-155637971D02*
X82863653Y-155566542D01*
X83935081Y-156495114D02*
X84149367Y-156566542D01*
X84149367Y-156566542D02*
X84220796Y-156637971D01*
X84220796Y-156637971D02*
X84292224Y-156780828D01*
X84292224Y-156780828D02*
X84292224Y-156995114D01*
X84292224Y-156995114D02*
X84220796Y-157137971D01*
X84220796Y-157137971D02*
X84149367Y-157209400D01*
X84149367Y-157209400D02*
X84006510Y-157280828D01*
X84006510Y-157280828D02*
X83435081Y-157280828D01*
X83435081Y-157280828D02*
X83435081Y-155780828D01*
X83435081Y-155780828D02*
X83935081Y-155780828D01*
X83935081Y-155780828D02*
X84077939Y-155852257D01*
X84077939Y-155852257D02*
X84149367Y-155923685D01*
X84149367Y-155923685D02*
X84220796Y-156066542D01*
X84220796Y-156066542D02*
X84220796Y-156209400D01*
X84220796Y-156209400D02*
X84149367Y-156352257D01*
X84149367Y-156352257D02*
X84077939Y-156423685D01*
X84077939Y-156423685D02*
X83935081Y-156495114D01*
X83935081Y-156495114D02*
X83435081Y-156495114D01*
X84935081Y-157137971D02*
X85006510Y-157209400D01*
X85006510Y-157209400D02*
X84935081Y-157280828D01*
X84935081Y-157280828D02*
X84863653Y-157209400D01*
X84863653Y-157209400D02*
X84935081Y-157137971D01*
X84935081Y-157137971D02*
X84935081Y-157280828D01*
X85649367Y-157280828D02*
X85649367Y-155780828D01*
X85649367Y-155780828D02*
X86149367Y-156852257D01*
X86149367Y-156852257D02*
X86649367Y-155780828D01*
X86649367Y-155780828D02*
X86649367Y-157280828D01*
X88006511Y-157280828D02*
X88006511Y-156495114D01*
X88006511Y-156495114D02*
X87935082Y-156352257D01*
X87935082Y-156352257D02*
X87792225Y-156280828D01*
X87792225Y-156280828D02*
X87506511Y-156280828D01*
X87506511Y-156280828D02*
X87363653Y-156352257D01*
X88006511Y-157209400D02*
X87863653Y-157280828D01*
X87863653Y-157280828D02*
X87506511Y-157280828D01*
X87506511Y-157280828D02*
X87363653Y-157209400D01*
X87363653Y-157209400D02*
X87292225Y-157066542D01*
X87292225Y-157066542D02*
X87292225Y-156923685D01*
X87292225Y-156923685D02*
X87363653Y-156780828D01*
X87363653Y-156780828D02*
X87506511Y-156709400D01*
X87506511Y-156709400D02*
X87863653Y-156709400D01*
X87863653Y-156709400D02*
X88006511Y-156637971D01*
X88649368Y-157209400D02*
X88792225Y-157280828D01*
X88792225Y-157280828D02*
X89077939Y-157280828D01*
X89077939Y-157280828D02*
X89220796Y-157209400D01*
X89220796Y-157209400D02*
X89292225Y-157066542D01*
X89292225Y-157066542D02*
X89292225Y-156995114D01*
X89292225Y-156995114D02*
X89220796Y-156852257D01*
X89220796Y-156852257D02*
X89077939Y-156780828D01*
X89077939Y-156780828D02*
X88863654Y-156780828D01*
X88863654Y-156780828D02*
X88720796Y-156709400D01*
X88720796Y-156709400D02*
X88649368Y-156566542D01*
X88649368Y-156566542D02*
X88649368Y-156495114D01*
X88649368Y-156495114D02*
X88720796Y-156352257D01*
X88720796Y-156352257D02*
X88863654Y-156280828D01*
X88863654Y-156280828D02*
X89077939Y-156280828D01*
X89077939Y-156280828D02*
X89220796Y-156352257D01*
X89935082Y-157280828D02*
X89935082Y-155780828D01*
X90077940Y-156709400D02*
X90506511Y-157280828D01*
X90506511Y-156280828D02*
X89935082Y-156852257D01*
X91006511Y-157852257D02*
X91077940Y-157780828D01*
X91077940Y-157780828D02*
X91220797Y-157566542D01*
X91220797Y-157566542D02*
X91292226Y-157423685D01*
X91292226Y-157423685D02*
X91363654Y-157209400D01*
X91363654Y-157209400D02*
X91435083Y-156852257D01*
X91435083Y-156852257D02*
X91435083Y-156566542D01*
X91435083Y-156566542D02*
X91363654Y-156209400D01*
X91363654Y-156209400D02*
X91292226Y-155995114D01*
X91292226Y-155995114D02*
X91220797Y-155852257D01*
X91220797Y-155852257D02*
X91077940Y-155637971D01*
X91077940Y-155637971D02*
X91006511Y-155566542D01*
D11*
X122634000Y-56134000D03*
X122634000Y-53594000D03*
X122634000Y-51054000D03*
X114633000Y-56134000D03*
X114633000Y-53594000D03*
X114633000Y-51054000D03*
X130635000Y-56134000D03*
X130635000Y-53594000D03*
X130635000Y-51054000D03*
D12*
X60833000Y-41180000D03*
D13*
X82931000Y-58420000D03*
D14*
X80391000Y-58420000D03*
X77851000Y-58420000D03*
X75311000Y-58420000D03*
X72771000Y-58420000D03*
X70231000Y-58420000D03*
X67691000Y-58420000D03*
X65151000Y-58420000D03*
X62611000Y-58420000D03*
X60071000Y-58420000D03*
D12*
X60833000Y-123920000D03*
D15*
X71604000Y-70114000D03*
D16*
X71604000Y-73614000D03*
D17*
X106121000Y-42180000D03*
D18*
X113659000Y-120181500D03*
D19*
X117159000Y-120181500D03*
X120659000Y-120181500D03*
X124159000Y-120181500D03*
X127659000Y-120181500D03*
D13*
X133073000Y-76146000D03*
D14*
X135613000Y-76146000D03*
X133073000Y-78686000D03*
X135613000Y-78686000D03*
X133073000Y-81226000D03*
X135613000Y-81226000D03*
X133073000Y-83766000D03*
X135613000Y-83766000D03*
X133073000Y-86306000D03*
X135613000Y-86306000D03*
X133073000Y-88846000D03*
X135613000Y-88846000D03*
X133073000Y-91386000D03*
X135613000Y-91386000D03*
D20*
X97604000Y-100014000D03*
X97604000Y-91214000D03*
D21*
X104604000Y-93114000D03*
X104604000Y-95614000D03*
X104604000Y-98114000D03*
D13*
X104775000Y-58420000D03*
D14*
X102235000Y-58420000D03*
X99695000Y-58420000D03*
X97155000Y-58420000D03*
X94615000Y-58420000D03*
X92075000Y-58420000D03*
X89535000Y-58420000D03*
X86995000Y-58420000D03*
D12*
X134897000Y-41180000D03*
X134897000Y-123920000D03*
D13*
X69215000Y-106680000D03*
D14*
X71755000Y-106680000D03*
X74295000Y-106680000D03*
X76835000Y-106680000D03*
X79375000Y-106680000D03*
X81915000Y-106680000D03*
X84455000Y-106680000D03*
X86995000Y-106680000D03*
D17*
X134104000Y-116114000D03*
D13*
X92075000Y-106680000D03*
D14*
X94615000Y-106680000D03*
X97155000Y-106680000D03*
X99695000Y-106680000D03*
X102235000Y-106680000D03*
X104775000Y-106680000D03*
D13*
X80899000Y-99060000D03*
D14*
X83439000Y-99060000D03*
D13*
X133073000Y-62176000D03*
D14*
X135613000Y-62176000D03*
X133073000Y-64716000D03*
X135613000Y-64716000D03*
X133073000Y-67256000D03*
X135613000Y-67256000D03*
X133073000Y-69796000D03*
X135613000Y-69796000D03*
D13*
X133073000Y-95196000D03*
D14*
X135613000Y-95196000D03*
X133073000Y-97736000D03*
X135613000Y-97736000D03*
X133073000Y-100276000D03*
X135613000Y-100276000D03*
X133073000Y-102816000D03*
X135613000Y-102816000D03*
X133073000Y-105356000D03*
X135613000Y-105356000D03*
X133073000Y-107896000D03*
X135613000Y-107896000D03*
X133073000Y-110436000D03*
X135613000Y-110436000D03*
D13*
X81354000Y-78419000D03*
D14*
X81354000Y-75879000D03*
X81354000Y-73339000D03*
D13*
X59055000Y-53340000D03*
D14*
X59055000Y-50800000D03*
X61595000Y-53340000D03*
X61595000Y-50800000D03*
X64135000Y-53340000D03*
X64135000Y-50800000D03*
X66675000Y-53340000D03*
X66675000Y-50800000D03*
X69215000Y-53340000D03*
X69215000Y-50800000D03*
X71755000Y-53340000D03*
X71755000Y-50800000D03*
X74295000Y-53340000D03*
X74295000Y-50800000D03*
X76835000Y-53340000D03*
X76835000Y-50800000D03*
X79375000Y-53340000D03*
X79375000Y-50800000D03*
X81915000Y-53340000D03*
X81915000Y-50800000D03*
X84455000Y-53340000D03*
X84455000Y-50800000D03*
X86995000Y-53340000D03*
X86995000Y-50800000D03*
X89535000Y-53340000D03*
X89535000Y-50800000D03*
X92075000Y-53340000D03*
X92075000Y-50800000D03*
X94615000Y-53340000D03*
X94615000Y-50800000D03*
X97155000Y-53340000D03*
X97155000Y-50800000D03*
X99695000Y-53340000D03*
X99695000Y-50800000D03*
X102235000Y-53340000D03*
X102235000Y-50800000D03*
X104775000Y-53340000D03*
X104775000Y-50800000D03*
D13*
X59055000Y-114300000D03*
D14*
X59055000Y-111760000D03*
X61595000Y-114300000D03*
X61595000Y-111760000D03*
X64135000Y-114300000D03*
X64135000Y-111760000D03*
X66675000Y-114300000D03*
X66675000Y-111760000D03*
X69215000Y-114300000D03*
X69215000Y-111760000D03*
X71755000Y-114300000D03*
X71755000Y-111760000D03*
X74295000Y-114300000D03*
X74295000Y-111760000D03*
X76835000Y-114300000D03*
X76835000Y-111760000D03*
X79375000Y-114300000D03*
X79375000Y-111760000D03*
X81915000Y-114300000D03*
X81915000Y-111760000D03*
X84455000Y-114300000D03*
X84455000Y-111760000D03*
X86995000Y-114300000D03*
X86995000Y-111760000D03*
X89535000Y-114300000D03*
X89535000Y-111760000D03*
X92075000Y-114300000D03*
X92075000Y-111760000D03*
X94615000Y-114300000D03*
X94615000Y-111760000D03*
X97155000Y-114300000D03*
X97155000Y-111760000D03*
X99695000Y-114300000D03*
X99695000Y-111760000D03*
X102235000Y-114300000D03*
X102235000Y-111760000D03*
X104775000Y-114300000D03*
X104775000Y-111760000D03*
D22*
X137104000Y-49614000D03*
D23*
X137104000Y-51614000D03*
X137104000Y-53614000D03*
X137104000Y-55614000D03*
X137104000Y-57614000D03*
D13*
X104775000Y-78740000D03*
D14*
X107315000Y-78740000D03*
X104775000Y-81280000D03*
X107315000Y-81280000D03*
X104775000Y-83820000D03*
X107315000Y-83820000D03*
M02*
