G04 #@! TF.GenerationSoftware,KiCad,Pcbnew,9.0.3*
G04 #@! TF.CreationDate,2026-02-18T15:21:07+00:00*
G04 #@! TF.ProjectId,nevb_mtr1_c_1,6e657662-5f6d-4747-9231-5f635f312e6b,01*
G04 #@! TF.SameCoordinates,Original*
G04 #@! TF.FileFunction,Paste,Top*
G04 #@! TF.FilePolarity,Positive*
%FSLAX46Y46*%
G04 Gerber Fmt 4.6, Leading zero omitted, Abs format (unit mm)*
G04 Created by KiCad (PCBNEW 9.0.3) date 2026-02-18 15:21:07*
%MOMM*%
%LPD*%
G01*
G04 APERTURE LIST*
G04 Aperture macros list*
%AMRoundRect*
0 Rectangle with rounded corners*
0 $1 Rounding radius*
0 $2 $3 $4 $5 $6 $7 $8 $9 X,Y pos of 4 corners*
0 Add a 4 corners polygon primitive as box body*
4,1,4,$2,$3,$4,$5,$6,$7,$8,$9,$2,$3,0*
0 Add four circle primitives for the rounded corners*
1,1,$1+$1,$2,$3*
1,1,$1+$1,$4,$5*
1,1,$1+$1,$6,$7*
1,1,$1+$1,$8,$9*
0 Add four rect primitives between the rounded corners*
20,1,$1+$1,$2,$3,$4,$5,0*
20,1,$1+$1,$4,$5,$6,$7,0*
20,1,$1+$1,$6,$7,$8,$9,0*
20,1,$1+$1,$8,$9,$2,$3,0*%
G04 Aperture macros list end*
%ADD10C,0.300000*%
%ADD11R,1.600000X2.200000*%
%ADD12RoundRect,0.250001X-0.624999X0.462499X-0.624999X-0.462499X0.624999X-0.462499X0.624999X0.462499X0*%
%ADD13RoundRect,0.250001X0.624999X-0.462499X0.624999X0.462499X-0.624999X0.462499X-0.624999X-0.462499X0*%
%ADD14RoundRect,0.237500X0.250000X0.237500X-0.250000X0.237500X-0.250000X-0.237500X0.250000X-0.237500X0*%
%ADD15RoundRect,0.150000X0.725000X0.150000X-0.725000X0.150000X-0.725000X-0.150000X0.725000X-0.150000X0*%
%ADD16RoundRect,0.237500X-0.237500X0.250000X-0.237500X-0.250000X0.237500X-0.250000X0.237500X0.250000X0*%
%ADD17RoundRect,0.250001X0.462499X0.624999X-0.462499X0.624999X-0.462499X-0.624999X0.462499X-0.624999X0*%
%ADD18RoundRect,0.237500X0.237500X-0.250000X0.237500X0.250000X-0.237500X0.250000X-0.237500X-0.250000X0*%
%ADD19RoundRect,0.150000X0.512500X0.150000X-0.512500X0.150000X-0.512500X-0.150000X0.512500X-0.150000X0*%
%ADD20RoundRect,0.150000X-0.587500X-0.150000X0.587500X-0.150000X0.587500X0.150000X-0.587500X0.150000X0*%
%ADD21RoundRect,0.237500X0.237500X-0.300000X0.237500X0.300000X-0.237500X0.300000X-0.237500X-0.300000X0*%
%ADD22RoundRect,0.237500X0.300000X0.237500X-0.300000X0.237500X-0.300000X-0.237500X0.300000X-0.237500X0*%
%ADD23RoundRect,0.250000X-0.350000X-0.450000X0.350000X-0.450000X0.350000X0.450000X-0.350000X0.450000X0*%
%ADD24RoundRect,0.250000X0.475000X-0.337500X0.475000X0.337500X-0.475000X0.337500X-0.475000X-0.337500X0*%
%ADD25RoundRect,0.100000X-0.100000X0.637500X-0.100000X-0.637500X0.100000X-0.637500X0.100000X0.637500X0*%
%ADD26RoundRect,0.237500X-0.300000X-0.237500X0.300000X-0.237500X0.300000X0.237500X-0.300000X0.237500X0*%
%ADD27RoundRect,0.237500X-0.250000X-0.237500X0.250000X-0.237500X0.250000X0.237500X-0.250000X0.237500X0*%
%ADD28RoundRect,0.250000X-0.550000X1.500000X-0.550000X-1.500000X0.550000X-1.500000X0.550000X1.500000X0*%
%ADD29RoundRect,0.250000X-1.100000X0.412500X-1.100000X-0.412500X1.100000X-0.412500X1.100000X0.412500X0*%
%ADD30RoundRect,0.250000X-0.450000X0.350000X-0.450000X-0.350000X0.450000X-0.350000X0.450000X0.350000X0*%
%ADD31RoundRect,0.125000X0.125000X-0.125000X0.125000X0.125000X-0.125000X0.125000X-0.125000X-0.125000X0*%
%ADD32RoundRect,0.237500X-0.237500X0.300000X-0.237500X-0.300000X0.237500X-0.300000X0.237500X0.300000X0*%
%ADD33RoundRect,0.250000X0.412500X1.100000X-0.412500X1.100000X-0.412500X-1.100000X0.412500X-1.100000X0*%
%ADD34RoundRect,0.150000X-0.150000X0.625000X-0.150000X-0.625000X0.150000X-0.625000X0.150000X0.625000X0*%
%ADD35R,3.400000X2.710000*%
%ADD36RoundRect,0.250000X-0.800000X0.450000X-0.800000X-0.450000X0.800000X-0.450000X0.800000X0.450000X0*%
G04 APERTURE END LIST*
D10*
X60935082Y-144509400D02*
X61149368Y-144580828D01*
X61149368Y-144580828D02*
X61506510Y-144580828D01*
X61506510Y-144580828D02*
X61649368Y-144509400D01*
X61649368Y-144509400D02*
X61720796Y-144437971D01*
X61720796Y-144437971D02*
X61792225Y-144295114D01*
X61792225Y-144295114D02*
X61792225Y-144152257D01*
X61792225Y-144152257D02*
X61720796Y-144009400D01*
X61720796Y-144009400D02*
X61649368Y-143937971D01*
X61649368Y-143937971D02*
X61506510Y-143866542D01*
X61506510Y-143866542D02*
X61220796Y-143795114D01*
X61220796Y-143795114D02*
X61077939Y-143723685D01*
X61077939Y-143723685D02*
X61006510Y-143652257D01*
X61006510Y-143652257D02*
X60935082Y-143509400D01*
X60935082Y-143509400D02*
X60935082Y-143366542D01*
X60935082Y-143366542D02*
X61006510Y-143223685D01*
X61006510Y-143223685D02*
X61077939Y-143152257D01*
X61077939Y-143152257D02*
X61220796Y-143080828D01*
X61220796Y-143080828D02*
X61577939Y-143080828D01*
X61577939Y-143080828D02*
X61792225Y-143152257D01*
X62649367Y-144580828D02*
X62506510Y-144509400D01*
X62506510Y-144509400D02*
X62435081Y-144437971D01*
X62435081Y-144437971D02*
X62363653Y-144295114D01*
X62363653Y-144295114D02*
X62363653Y-143866542D01*
X62363653Y-143866542D02*
X62435081Y-143723685D01*
X62435081Y-143723685D02*
X62506510Y-143652257D01*
X62506510Y-143652257D02*
X62649367Y-143580828D01*
X62649367Y-143580828D02*
X62863653Y-143580828D01*
X62863653Y-143580828D02*
X63006510Y-143652257D01*
X63006510Y-143652257D02*
X63077939Y-143723685D01*
X63077939Y-143723685D02*
X63149367Y-143866542D01*
X63149367Y-143866542D02*
X63149367Y-144295114D01*
X63149367Y-144295114D02*
X63077939Y-144437971D01*
X63077939Y-144437971D02*
X63006510Y-144509400D01*
X63006510Y-144509400D02*
X62863653Y-144580828D01*
X62863653Y-144580828D02*
X62649367Y-144580828D01*
X64006510Y-144580828D02*
X63863653Y-144509400D01*
X63863653Y-144509400D02*
X63792224Y-144366542D01*
X63792224Y-144366542D02*
X63792224Y-143080828D01*
X65220796Y-144580828D02*
X65220796Y-143080828D01*
X65220796Y-144509400D02*
X65077938Y-144580828D01*
X65077938Y-144580828D02*
X64792224Y-144580828D01*
X64792224Y-144580828D02*
X64649367Y-144509400D01*
X64649367Y-144509400D02*
X64577938Y-144437971D01*
X64577938Y-144437971D02*
X64506510Y-144295114D01*
X64506510Y-144295114D02*
X64506510Y-143866542D01*
X64506510Y-143866542D02*
X64577938Y-143723685D01*
X64577938Y-143723685D02*
X64649367Y-143652257D01*
X64649367Y-143652257D02*
X64792224Y-143580828D01*
X64792224Y-143580828D02*
X65077938Y-143580828D01*
X65077938Y-143580828D02*
X65220796Y-143652257D01*
X66506510Y-144509400D02*
X66363653Y-144580828D01*
X66363653Y-144580828D02*
X66077939Y-144580828D01*
X66077939Y-144580828D02*
X65935081Y-144509400D01*
X65935081Y-144509400D02*
X65863653Y-144366542D01*
X65863653Y-144366542D02*
X65863653Y-143795114D01*
X65863653Y-143795114D02*
X65935081Y-143652257D01*
X65935081Y-143652257D02*
X66077939Y-143580828D01*
X66077939Y-143580828D02*
X66363653Y-143580828D01*
X66363653Y-143580828D02*
X66506510Y-143652257D01*
X66506510Y-143652257D02*
X66577939Y-143795114D01*
X66577939Y-143795114D02*
X66577939Y-143937971D01*
X66577939Y-143937971D02*
X65863653Y-144080828D01*
X67220795Y-144580828D02*
X67220795Y-143580828D01*
X67220795Y-143866542D02*
X67292224Y-143723685D01*
X67292224Y-143723685D02*
X67363653Y-143652257D01*
X67363653Y-143652257D02*
X67506510Y-143580828D01*
X67506510Y-143580828D02*
X67649367Y-143580828D01*
X69292223Y-144580828D02*
X69292223Y-143080828D01*
X69292223Y-143080828D02*
X69863652Y-143080828D01*
X69863652Y-143080828D02*
X70006509Y-143152257D01*
X70006509Y-143152257D02*
X70077938Y-143223685D01*
X70077938Y-143223685D02*
X70149366Y-143366542D01*
X70149366Y-143366542D02*
X70149366Y-143580828D01*
X70149366Y-143580828D02*
X70077938Y-143723685D01*
X70077938Y-143723685D02*
X70006509Y-143795114D01*
X70006509Y-143795114D02*
X69863652Y-143866542D01*
X69863652Y-143866542D02*
X69292223Y-143866542D01*
X71435081Y-144580828D02*
X71435081Y-143795114D01*
X71435081Y-143795114D02*
X71363652Y-143652257D01*
X71363652Y-143652257D02*
X71220795Y-143580828D01*
X71220795Y-143580828D02*
X70935081Y-143580828D01*
X70935081Y-143580828D02*
X70792223Y-143652257D01*
X71435081Y-144509400D02*
X71292223Y-144580828D01*
X71292223Y-144580828D02*
X70935081Y-144580828D01*
X70935081Y-144580828D02*
X70792223Y-144509400D01*
X70792223Y-144509400D02*
X70720795Y-144366542D01*
X70720795Y-144366542D02*
X70720795Y-144223685D01*
X70720795Y-144223685D02*
X70792223Y-144080828D01*
X70792223Y-144080828D02*
X70935081Y-144009400D01*
X70935081Y-144009400D02*
X71292223Y-144009400D01*
X71292223Y-144009400D02*
X71435081Y-143937971D01*
X72077938Y-144509400D02*
X72220795Y-144580828D01*
X72220795Y-144580828D02*
X72506509Y-144580828D01*
X72506509Y-144580828D02*
X72649366Y-144509400D01*
X72649366Y-144509400D02*
X72720795Y-144366542D01*
X72720795Y-144366542D02*
X72720795Y-144295114D01*
X72720795Y-144295114D02*
X72649366Y-144152257D01*
X72649366Y-144152257D02*
X72506509Y-144080828D01*
X72506509Y-144080828D02*
X72292224Y-144080828D01*
X72292224Y-144080828D02*
X72149366Y-144009400D01*
X72149366Y-144009400D02*
X72077938Y-143866542D01*
X72077938Y-143866542D02*
X72077938Y-143795114D01*
X72077938Y-143795114D02*
X72149366Y-143652257D01*
X72149366Y-143652257D02*
X72292224Y-143580828D01*
X72292224Y-143580828D02*
X72506509Y-143580828D01*
X72506509Y-143580828D02*
X72649366Y-143652257D01*
X73149367Y-143580828D02*
X73720795Y-143580828D01*
X73363652Y-143080828D02*
X73363652Y-144366542D01*
X73363652Y-144366542D02*
X73435081Y-144509400D01*
X73435081Y-144509400D02*
X73577938Y-144580828D01*
X73577938Y-144580828D02*
X73720795Y-144580828D01*
X74792224Y-144509400D02*
X74649367Y-144580828D01*
X74649367Y-144580828D02*
X74363653Y-144580828D01*
X74363653Y-144580828D02*
X74220795Y-144509400D01*
X74220795Y-144509400D02*
X74149367Y-144366542D01*
X74149367Y-144366542D02*
X74149367Y-143795114D01*
X74149367Y-143795114D02*
X74220795Y-143652257D01*
X74220795Y-143652257D02*
X74363653Y-143580828D01*
X74363653Y-143580828D02*
X74649367Y-143580828D01*
X74649367Y-143580828D02*
X74792224Y-143652257D01*
X74792224Y-143652257D02*
X74863653Y-143795114D01*
X74863653Y-143795114D02*
X74863653Y-143937971D01*
X74863653Y-143937971D02*
X74149367Y-144080828D01*
X77149366Y-143795114D02*
X76649366Y-143795114D01*
X76649366Y-144580828D02*
X76649366Y-143080828D01*
X76649366Y-143080828D02*
X77363652Y-143080828D01*
X77935080Y-144580828D02*
X77935080Y-143580828D01*
X77935080Y-143866542D02*
X78006509Y-143723685D01*
X78006509Y-143723685D02*
X78077938Y-143652257D01*
X78077938Y-143652257D02*
X78220795Y-143580828D01*
X78220795Y-143580828D02*
X78363652Y-143580828D01*
X79077937Y-144580828D02*
X78935080Y-144509400D01*
X78935080Y-144509400D02*
X78863651Y-144437971D01*
X78863651Y-144437971D02*
X78792223Y-144295114D01*
X78792223Y-144295114D02*
X78792223Y-143866542D01*
X78792223Y-143866542D02*
X78863651Y-143723685D01*
X78863651Y-143723685D02*
X78935080Y-143652257D01*
X78935080Y-143652257D02*
X79077937Y-143580828D01*
X79077937Y-143580828D02*
X79292223Y-143580828D01*
X79292223Y-143580828D02*
X79435080Y-143652257D01*
X79435080Y-143652257D02*
X79506509Y-143723685D01*
X79506509Y-143723685D02*
X79577937Y-143866542D01*
X79577937Y-143866542D02*
X79577937Y-144295114D01*
X79577937Y-144295114D02*
X79506509Y-144437971D01*
X79506509Y-144437971D02*
X79435080Y-144509400D01*
X79435080Y-144509400D02*
X79292223Y-144580828D01*
X79292223Y-144580828D02*
X79077937Y-144580828D01*
X80220794Y-143580828D02*
X80220794Y-144580828D01*
X80220794Y-143723685D02*
X80292223Y-143652257D01*
X80292223Y-143652257D02*
X80435080Y-143580828D01*
X80435080Y-143580828D02*
X80649366Y-143580828D01*
X80649366Y-143580828D02*
X80792223Y-143652257D01*
X80792223Y-143652257D02*
X80863652Y-143795114D01*
X80863652Y-143795114D02*
X80863652Y-144580828D01*
X81363652Y-143580828D02*
X81935080Y-143580828D01*
X81577937Y-143080828D02*
X81577937Y-144366542D01*
X81577937Y-144366542D02*
X81649366Y-144509400D01*
X81649366Y-144509400D02*
X81792223Y-144580828D01*
X81792223Y-144580828D02*
X81935080Y-144580828D01*
X84006509Y-145152257D02*
X83935080Y-145080828D01*
X83935080Y-145080828D02*
X83792223Y-144866542D01*
X83792223Y-144866542D02*
X83720795Y-144723685D01*
X83720795Y-144723685D02*
X83649366Y-144509400D01*
X83649366Y-144509400D02*
X83577937Y-144152257D01*
X83577937Y-144152257D02*
X83577937Y-143866542D01*
X83577937Y-143866542D02*
X83649366Y-143509400D01*
X83649366Y-143509400D02*
X83720795Y-143295114D01*
X83720795Y-143295114D02*
X83792223Y-143152257D01*
X83792223Y-143152257D02*
X83935080Y-142937971D01*
X83935080Y-142937971D02*
X84006509Y-142866542D01*
X85077937Y-143795114D02*
X84577937Y-143795114D01*
X84577937Y-144580828D02*
X84577937Y-143080828D01*
X84577937Y-143080828D02*
X85292223Y-143080828D01*
X85863651Y-144437971D02*
X85935080Y-144509400D01*
X85935080Y-144509400D02*
X85863651Y-144580828D01*
X85863651Y-144580828D02*
X85792223Y-144509400D01*
X85792223Y-144509400D02*
X85863651Y-144437971D01*
X85863651Y-144437971D02*
X85863651Y-144580828D01*
X86577937Y-144580828D02*
X86577937Y-143080828D01*
X86577937Y-143080828D02*
X87149366Y-143080828D01*
X87149366Y-143080828D02*
X87292223Y-143152257D01*
X87292223Y-143152257D02*
X87363652Y-143223685D01*
X87363652Y-143223685D02*
X87435080Y-143366542D01*
X87435080Y-143366542D02*
X87435080Y-143580828D01*
X87435080Y-143580828D02*
X87363652Y-143723685D01*
X87363652Y-143723685D02*
X87292223Y-143795114D01*
X87292223Y-143795114D02*
X87149366Y-143866542D01*
X87149366Y-143866542D02*
X86577937Y-143866542D01*
X88720795Y-144580828D02*
X88720795Y-143795114D01*
X88720795Y-143795114D02*
X88649366Y-143652257D01*
X88649366Y-143652257D02*
X88506509Y-143580828D01*
X88506509Y-143580828D02*
X88220795Y-143580828D01*
X88220795Y-143580828D02*
X88077937Y-143652257D01*
X88720795Y-144509400D02*
X88577937Y-144580828D01*
X88577937Y-144580828D02*
X88220795Y-144580828D01*
X88220795Y-144580828D02*
X88077937Y-144509400D01*
X88077937Y-144509400D02*
X88006509Y-144366542D01*
X88006509Y-144366542D02*
X88006509Y-144223685D01*
X88006509Y-144223685D02*
X88077937Y-144080828D01*
X88077937Y-144080828D02*
X88220795Y-144009400D01*
X88220795Y-144009400D02*
X88577937Y-144009400D01*
X88577937Y-144009400D02*
X88720795Y-143937971D01*
X89363652Y-144509400D02*
X89506509Y-144580828D01*
X89506509Y-144580828D02*
X89792223Y-144580828D01*
X89792223Y-144580828D02*
X89935080Y-144509400D01*
X89935080Y-144509400D02*
X90006509Y-144366542D01*
X90006509Y-144366542D02*
X90006509Y-144295114D01*
X90006509Y-144295114D02*
X89935080Y-144152257D01*
X89935080Y-144152257D02*
X89792223Y-144080828D01*
X89792223Y-144080828D02*
X89577938Y-144080828D01*
X89577938Y-144080828D02*
X89435080Y-144009400D01*
X89435080Y-144009400D02*
X89363652Y-143866542D01*
X89363652Y-143866542D02*
X89363652Y-143795114D01*
X89363652Y-143795114D02*
X89435080Y-143652257D01*
X89435080Y-143652257D02*
X89577938Y-143580828D01*
X89577938Y-143580828D02*
X89792223Y-143580828D01*
X89792223Y-143580828D02*
X89935080Y-143652257D01*
X90435081Y-143580828D02*
X91006509Y-143580828D01*
X90649366Y-143080828D02*
X90649366Y-144366542D01*
X90649366Y-144366542D02*
X90720795Y-144509400D01*
X90720795Y-144509400D02*
X90863652Y-144580828D01*
X90863652Y-144580828D02*
X91006509Y-144580828D01*
X92077938Y-144509400D02*
X91935081Y-144580828D01*
X91935081Y-144580828D02*
X91649367Y-144580828D01*
X91649367Y-144580828D02*
X91506509Y-144509400D01*
X91506509Y-144509400D02*
X91435081Y-144366542D01*
X91435081Y-144366542D02*
X91435081Y-143795114D01*
X91435081Y-143795114D02*
X91506509Y-143652257D01*
X91506509Y-143652257D02*
X91649367Y-143580828D01*
X91649367Y-143580828D02*
X91935081Y-143580828D01*
X91935081Y-143580828D02*
X92077938Y-143652257D01*
X92077938Y-143652257D02*
X92149367Y-143795114D01*
X92149367Y-143795114D02*
X92149367Y-143937971D01*
X92149367Y-143937971D02*
X91435081Y-144080828D01*
X92649366Y-145152257D02*
X92720795Y-145080828D01*
X92720795Y-145080828D02*
X92863652Y-144866542D01*
X92863652Y-144866542D02*
X92935081Y-144723685D01*
X92935081Y-144723685D02*
X93006509Y-144509400D01*
X93006509Y-144509400D02*
X93077938Y-144152257D01*
X93077938Y-144152257D02*
X93077938Y-143866542D01*
X93077938Y-143866542D02*
X93006509Y-143509400D01*
X93006509Y-143509400D02*
X92935081Y-143295114D01*
X92935081Y-143295114D02*
X92863652Y-143152257D01*
X92863652Y-143152257D02*
X92720795Y-142937971D01*
X92720795Y-142937971D02*
X92649366Y-142866542D01*
D11*
X100304000Y-82614000D03*
X93904000Y-82614000D03*
D12*
X78058500Y-40715000D03*
X78058500Y-43690000D03*
D13*
X72604000Y-92176500D03*
X72604000Y-89201500D03*
D14*
X102258500Y-40656000D03*
X100433500Y-40656000D03*
D15*
X126604000Y-78364000D03*
X126604000Y-77094000D03*
X126604000Y-75824000D03*
X126604000Y-74554000D03*
X121454000Y-74554000D03*
X121454000Y-75824000D03*
X121454000Y-77094000D03*
X121454000Y-78364000D03*
D16*
X92604000Y-61114000D03*
X92604000Y-62939000D03*
D17*
X123091500Y-66810000D03*
X120116500Y-66810000D03*
D12*
X92028500Y-40715000D03*
X92028500Y-43690000D03*
D18*
X75104000Y-91614000D03*
X75104000Y-89789000D03*
D16*
X108354000Y-87701500D03*
X108354000Y-89526500D03*
D19*
X116852000Y-101179000D03*
X116852000Y-100229000D03*
X116852000Y-99279000D03*
X114577000Y-99279000D03*
X114577000Y-101179000D03*
D20*
X100662500Y-44654000D03*
X102537500Y-43704000D03*
X100662500Y-42754000D03*
D21*
X129177949Y-87626448D03*
X129177949Y-85901448D03*
D22*
X115371000Y-97391500D03*
X113646000Y-97391500D03*
D12*
X94913000Y-40692500D03*
X94913000Y-43667500D03*
D16*
X87354000Y-61114000D03*
X87354000Y-62939000D03*
D14*
X119104000Y-97435000D03*
X117279000Y-97435000D03*
X119104000Y-85935000D03*
X117279000Y-85935000D03*
D23*
X121354000Y-72364000D03*
X123354000Y-72364000D03*
D14*
X120173500Y-40475000D03*
X118348500Y-40475000D03*
D21*
X114104000Y-112564000D03*
X114104000Y-110839000D03*
D24*
X86104000Y-77651500D03*
X86104000Y-75576500D03*
D21*
X103133188Y-76076940D03*
X103133188Y-74351940D03*
D18*
X129177949Y-102764685D03*
X129177949Y-100939685D03*
D25*
X70347000Y-39571500D03*
X69697000Y-39571500D03*
X69047000Y-39571500D03*
X68397000Y-39571500D03*
X67747000Y-39571500D03*
X67097000Y-39571500D03*
X66447000Y-39571500D03*
X65797000Y-39571500D03*
X65797000Y-45296500D03*
X66447000Y-45296500D03*
X67097000Y-45296500D03*
X67747000Y-45296500D03*
X68397000Y-45296500D03*
X69047000Y-45296500D03*
X69697000Y-45296500D03*
X70347000Y-45296500D03*
D18*
X107823000Y-53133000D03*
X107823000Y-51308000D03*
X124104000Y-112614000D03*
X124104000Y-110789000D03*
D16*
X95604000Y-65451500D03*
X95604000Y-67276500D03*
D26*
X71891500Y-45774000D03*
X73616500Y-45774000D03*
D18*
X119080500Y-89641500D03*
X119080500Y-87816500D03*
X129177949Y-79764685D03*
X129177949Y-77939685D03*
D27*
X118348500Y-43450000D03*
X120173500Y-43450000D03*
D18*
X82104000Y-62939000D03*
X82104000Y-61114000D03*
D16*
X115354000Y-81951500D03*
X115354000Y-83776500D03*
D23*
X121354000Y-95364000D03*
X123354000Y-95364000D03*
D16*
X85604000Y-61114000D03*
X85604000Y-62939000D03*
D14*
X112045500Y-40438500D03*
X110220500Y-40438500D03*
D26*
X99491500Y-74614000D03*
X101216500Y-74614000D03*
D28*
X107569000Y-62986000D03*
X107569000Y-68586000D03*
D27*
X104854000Y-76114000D03*
X106679000Y-76114000D03*
D14*
X95516500Y-74614000D03*
X93691500Y-74614000D03*
D16*
X89104000Y-61114000D03*
X89104000Y-62939000D03*
D18*
X129177949Y-91264685D03*
X129177949Y-89439685D03*
D12*
X114633000Y-40692500D03*
X114633000Y-43667500D03*
X75264500Y-40715000D03*
X75264500Y-43690000D03*
D22*
X123337759Y-103266843D03*
X121612759Y-103266843D03*
D29*
X89104000Y-75551500D03*
X89104000Y-78676500D03*
D22*
X123337759Y-80266843D03*
X121612759Y-80266843D03*
D27*
X117191500Y-72364000D03*
X119016500Y-72364000D03*
D16*
X115354000Y-70451500D03*
X115354000Y-72276500D03*
D22*
X83793500Y-86172000D03*
X82068500Y-86172000D03*
D21*
X122354000Y-112564000D03*
X122354000Y-110839000D03*
D15*
X126604000Y-89864000D03*
X126604000Y-88594000D03*
X126604000Y-87324000D03*
X126604000Y-86054000D03*
X121454000Y-86054000D03*
X121454000Y-87324000D03*
X121454000Y-88594000D03*
X121454000Y-89864000D03*
D26*
X125216500Y-103266843D03*
X126941500Y-103266843D03*
D27*
X79986500Y-93538000D03*
X81811500Y-93538000D03*
X117191500Y-83864000D03*
X119016500Y-83864000D03*
D22*
X123337759Y-91766843D03*
X121612759Y-91766843D03*
D21*
X129177949Y-99126448D03*
X129177949Y-97401448D03*
D16*
X94604000Y-61951500D03*
X94604000Y-63776500D03*
D27*
X98691500Y-76364000D03*
X100516500Y-76364000D03*
D18*
X119080500Y-78141500D03*
X119080500Y-76316500D03*
D30*
X117281500Y-65114000D03*
X117281500Y-67114000D03*
D26*
X125216500Y-91766843D03*
X126941500Y-91766843D03*
D12*
X89234500Y-40715000D03*
X89234500Y-43690000D03*
D16*
X115354000Y-93451500D03*
X115354000Y-95276500D03*
D22*
X115371000Y-74391500D03*
X113646000Y-74391500D03*
D14*
X106679000Y-72614000D03*
X104854000Y-72614000D03*
D31*
X84104000Y-93726500D03*
X84104000Y-91526500D03*
D27*
X104854000Y-74364000D03*
X106679000Y-74364000D03*
D19*
X116852000Y-78179000D03*
X116852000Y-77229000D03*
X116852000Y-76279000D03*
X114577000Y-76279000D03*
X114577000Y-78179000D03*
D22*
X93216500Y-76364000D03*
X91491500Y-76364000D03*
D18*
X96354000Y-63776500D03*
X96354000Y-61951500D03*
D27*
X133785726Y-72552528D03*
X135610726Y-72552528D03*
D26*
X114854000Y-79864000D03*
X116579000Y-79864000D03*
D32*
X102997000Y-66647000D03*
X102997000Y-68372000D03*
D16*
X71854000Y-61201500D03*
X71854000Y-63026500D03*
D18*
X119080500Y-101141500D03*
X119080500Y-99316500D03*
X120104000Y-112614000D03*
X120104000Y-110789000D03*
D33*
X101873500Y-63246000D03*
X98748500Y-63246000D03*
D12*
X83646500Y-40715000D03*
X83646500Y-43690000D03*
D18*
X111354000Y-82939000D03*
X111354000Y-81114000D03*
D16*
X80354000Y-61114000D03*
X80354000Y-62939000D03*
D18*
X83854000Y-62939000D03*
X83854000Y-61114000D03*
D20*
X81993500Y-88016000D03*
X81993500Y-89916000D03*
X83868500Y-88966000D03*
D21*
X118354000Y-112564000D03*
X118354000Y-110839000D03*
X129177949Y-76126448D03*
X129177949Y-74401448D03*
D12*
X86440500Y-40715000D03*
X86440500Y-43690000D03*
D21*
X79883000Y-89828500D03*
X79883000Y-88103500D03*
D22*
X115371000Y-85891500D03*
X113646000Y-85891500D03*
D27*
X110220500Y-43413500D03*
X112045500Y-43413500D03*
D16*
X70104000Y-61201500D03*
X70104000Y-63026500D03*
D22*
X96966500Y-76364000D03*
X95241500Y-76364000D03*
D18*
X71914000Y-44286500D03*
X71914000Y-42461500D03*
D12*
X80852500Y-40715000D03*
X80852500Y-43690000D03*
D16*
X77854000Y-61114000D03*
X77854000Y-62939000D03*
D27*
X117191500Y-95364000D03*
X119016500Y-95364000D03*
D14*
X119104000Y-74435000D03*
X117279000Y-74435000D03*
D23*
X121354000Y-83864000D03*
X123354000Y-83864000D03*
D34*
X101209000Y-66764000D03*
X99939000Y-66764000D03*
X98669000Y-66764000D03*
X97399000Y-66764000D03*
X97399000Y-72164000D03*
X98669000Y-72164000D03*
X99939000Y-72164000D03*
X101209000Y-72164000D03*
D35*
X99304000Y-69464000D03*
D14*
X81811500Y-91760000D03*
X79986500Y-91760000D03*
D15*
X126604000Y-101364000D03*
X126604000Y-100094000D03*
X126604000Y-98824000D03*
X126604000Y-97554000D03*
X121454000Y-97554000D03*
X121454000Y-98824000D03*
X121454000Y-100094000D03*
X121454000Y-101364000D03*
D26*
X108491500Y-111614000D03*
X110216500Y-111614000D03*
D18*
X112354000Y-105189000D03*
X112354000Y-103364000D03*
D36*
X113411000Y-63840000D03*
X113411000Y-68240000D03*
D16*
X76104000Y-61114000D03*
X76104000Y-62939000D03*
D26*
X125216500Y-80266843D03*
X126941500Y-80266843D03*
X114854000Y-91364000D03*
X116579000Y-91364000D03*
D19*
X116852000Y-89679000D03*
X116852000Y-88729000D03*
X116852000Y-87779000D03*
X114577000Y-87779000D03*
X114577000Y-89679000D03*
D16*
X95427588Y-71128071D03*
X95427588Y-72953071D03*
D12*
X122713000Y-40647500D03*
X122713000Y-43622500D03*
D26*
X114854000Y-102864000D03*
X116579000Y-102864000D03*
D18*
X90854000Y-62939000D03*
X90854000Y-61114000D03*
X91854000Y-74526500D03*
X91854000Y-72701500D03*
X115854000Y-112614000D03*
X115854000Y-110789000D03*
D14*
X110266500Y-109614000D03*
X108441500Y-109614000D03*
M02*
